<?xml version="1.0" standalone="no"?>
<!DOCTYPE svg PUBLIC "-//W3C//DTD SVG 20010904//EN"
 "http://www.w3.org/TR/2001/REC-SVG-20010904/DTD/svg10.dtd">
<svg version="1.0" xmlns="http://www.w3.org/2000/svg"
 width="1209.000000pt" height="1209.000000pt" viewBox="0 0 1209.000000 1209.000000"
 preserveAspectRatio="xMidYMid meet">
<metadata>
Created by potrace 1.14, written by Peter Selinger 2001-2017
</metadata>
<g transform="translate(0.000000,1209.000000) scale(0.100000,-0.100000)"
fill="#000000" stroke="none">
<path d="M6128 12034 c-14 -43 -40 -130 -43 -144 -11 -58 -219 -540 -237 -551
-5 -3 -8 -8 -6 -11 4 -6 -44 -111 -55 -119 -5 -3 -8 -9 -8 -13 2 -10 -63 -141
-72 -144 -4 -2 -5 -7 -2 -12 3 -5 0 -14 -7 -22 -22 -24 -35 -93 -20 -111 5 -6
15 -32 22 -57 6 -25 14 -52 17 -60 4 -8 7 -17 8 -20 0 -3 9 -32 20 -65 10 -33
19 -63 21 -67 1 -5 3 -11 4 -15 1 -5 3 -12 5 -18 1 -5 3 -12 4 -15 2 -3 5 -14
7 -25 6 -24 9 -35 17 -55 5 -12 38 -122 42 -140 5 -19 31 -105 47 -154 11 -32
21 -63 23 -70 1 -6 7 -23 13 -37 l11 -27 190 0 c216 0 201 -6 221 84 6 27 13
56 17 64 3 8 7 20 8 25 2 6 8 30 15 55 7 25 14 54 16 65 7 35 13 59 23 94 6
19 9 37 6 39 -3 3 -1 10 4 16 14 17 65 163 76 216 0 3 16 35 34 72 38 77 40
97 16 153 -10 22 -19 42 -20 45 -9 36 -33 96 -57 141 -16 32 -31 69 -34 84 -3
15 -12 37 -20 50 -9 13 -17 30 -19 37 -14 64 -19 78 -26 78 -5 0 -8 3 -7 8 2
12 -12 61 -49 167 -19 55 -42 120 -50 145 -8 25 -22 60 -30 79 -8 18 -16 39
-17 45 -1 6 -5 17 -9 23 -5 7 -10 23 -12 35 -3 13 -9 32 -13 43 -5 11 -14 31
-19 45 -6 14 -17 40 -25 59 l-15 35 -15 -50z"/>
<path d="M6910 11177 c-30 -99 -43 -132 -57 -149 -7 -8 -14 -24 -16 -36 -2
-12 -6 -24 -9 -28 -4 -3 -25 -45 -49 -92 -23 -48 -46 -88 -51 -90 -4 -2 -8 -8
-8 -14 0 -10 -138 -257 -150 -268 -7 -6 -83 -162 -105 -215 -33 -77 -72 -205
-64 -205 5 0 41 16 80 36 67 35 208 70 344 88 69 9 70 9 133 33 9 3 19 7 22 8
33 9 49 20 64 47 11 18 34 56 52 83 44 67 46 96 13 185 -15 41 -30 97 -33 125
-4 27 -12 55 -18 62 -6 7 -8 13 -5 13 3 0 1 15 -3 33 -18 70 -39 143 -50 172
-7 17 -14 46 -15 65 -2 19 -5 46 -9 60 -14 64 -18 87 -23 118 -8 53 -19 45
-43 -31z"/>
<path d="M5100 10978 c0 -3 6 -27 14 -54 32 -110 48 -237 50 -398 l1 -90 50
-54 c58 -64 115 -142 115 -158 0 -19 34 -42 70 -47 19 -3 46 -8 60 -11 14 -4
41 -9 60 -12 19 -3 46 -7 60 -9 14 -3 63 -7 110 -11 46 -3 101 -11 122 -19
l38 -13 -7 27 c-5 20 -69 187 -134 351 -6 14 -10 26 -10 28 1 1 -5 15 -12 30
-8 15 -20 51 -27 80 -9 38 -20 59 -40 74 -16 11 -31 20 -34 19 -3 0 -30 15
-60 34 -30 19 -58 35 -62 35 -3 0 -32 15 -63 34 -104 62 -301 169 -301 164z"/>
<path d="M5102 9832 c-45 -93 -82 -174 -82 -181 0 -6 -4 -11 -9 -11 -5 0 -12
-10 -16 -22 -4 -13 -8 -25 -9 -28 -5 -11 -136 -280 -179 -367 -50 -102 -47
-63 -32 -351 12 -229 16 -355 19 -553 2 -113 6 -211 10 -218 4 -6 4 -11 -1
-11 -10 0 -9 -102 1 -118 4 -7 4 -12 -1 -12 -4 0 -9 -172 -10 -383 -1 -401
-11 -1248 -14 -1257 -1 -3 0 -9 1 -15 1 -5 1 -55 0 -110 -1 -55 -3 -278 -5
-495 -2 -217 -7 -575 -11 -795 -3 -220 -8 -483 -9 -585 -4 -254 -3 -234 -19
-221 -7 6 -33 22 -57 35 -66 35 -93 50 -99 57 -3 3 -12 8 -20 12 -8 4 -33 18
-55 32 -22 14 -47 28 -55 32 -27 13 -158 104 -170 119 -7 8 -16 14 -21 14 -9
0 -36 20 -68 50 -13 13 -62 53 -129 105 -7 5 -23 19 -35 30 -12 11 -45 38 -72
60 -28 21 -52 42 -55 45 -3 3 -20 19 -39 35 l-33 30 6 -70 c4 -38 7 -77 7 -85
1 -17 15 -126 24 -185 13 -86 58 -253 82 -304 21 -44 94 -146 187 -262 7 -8
32 -42 56 -75 24 -32 46 -61 50 -64 3 -3 17 -21 30 -40 23 -33 70 -94 143
-184 18 -22 59 -69 92 -104 33 -35 68 -76 77 -90 10 -15 18 -23 18 -19 0 4 27
-25 61 -65 98 -117 178 -206 269 -299 166 -169 260 -271 318 -344 49 -62 147
-181 152 -185 3 -3 13 -14 21 -26 14 -21 94 -117 115 -138 6 -6 18 -23 28 -38
16 -25 20 -26 89 -21 40 2 95 6 122 8 28 2 50 4 50 5 0 11 942 17 1022 7 48
-6 64 -1 69 23 0 3 4 14 9 25 4 11 24 58 42 105 34 83 52 125 89 205 10 22 18
42 19 45 1 14 41 96 50 102 5 4 7 8 3 8 -4 0 12 40 36 89 24 48 46 97 49 107
3 11 17 38 31 61 13 22 22 44 19 47 -4 3 -2 6 4 6 6 0 14 12 18 27 4 16 12 34
18 42 14 16 31 61 64 166 27 86 30 150 23 465 -1 80 0 503 4 940 16 1759 20
3138 11 3410 -3 85 -7 304 -10 485 -6 354 -8 396 -19 414 -4 6 -5 11 -2 11 2
0 0 15 -5 33 -6 17 -12 43 -15 56 -6 29 -77 174 -105 213 -11 15 -17 28 -12
28 4 0 3 4 -3 8 -6 4 -28 43 -50 87 -21 44 -41 82 -44 85 -3 3 -39 73 -80 155
-41 83 -79 153 -85 157 -5 4 -6 8 -2 8 5 0 0 12 -10 28 -17 25 -28 46 -63 128
l-14 31 -385 2 c-212 2 -420 4 -461 7 -41 2 -251 6 -466 9 l-390 5 -82 -168z
m828 -705 c226 -101 260 -121 346 -204 16 -16 41 -45 54 -64 13 -19 27 -36 30
-39 9 -8 46 -89 64 -143 14 -42 18 -63 31 -157 7 -48 8 -160 2 -166 -3 -4 -2
-15 4 -25 5 -11 6 -19 2 -19 -8 0 -8 -60 2 -495 9 -387 11 -420 19 -433 4 -7
2 -12 -4 -12 -6 0 -9 -4 -5 -9 3 -5 8 -76 10 -158 3 -81 7 -184 10 -228 16
-282 18 -338 19 -407 1 -43 5 -78 10 -78 5 0 3 -6 -3 -13 -6 -8 -8 -17 -4 -20
9 -10 13 -180 17 -850 3 -328 8 -602 11 -607 3 -6 3 -10 -2 -10 -10 0 -8 -93
1 -109 4 -6 4 -11 -1 -11 -7 0 -8 -117 -2 -257 2 -29 0 -55 -4 -59 -3 -3 -3
-16 1 -28 9 -26 8 -623 -2 -691 -6 -50 -20 -103 -36 -140 -10 -24 -53 -163
-57 -185 -1 -9 -9 -32 -17 -51 -13 -32 -21 -37 -68 -47 -52 -11 -254 -10 -314
1 -86 16 -253 88 -298 129 -11 10 -23 18 -27 18 -8 0 -6 295 7 870 12 560 6
1433 -11 1459 -3 5 -1 12 5 16 6 4 8 11 4 17 -6 10 -10 98 -18 425 -2 95 -7
176 -10 182 -4 5 -2 12 3 16 6 3 7 16 3 28 -17 54 -5 427 18 547 14 72 2 744
-30 1767 l-3 83 69 104 69 104 35 -18 c19 -9 51 -24 70 -33z"/>
<path d="M1523 9553 c7 -13 99 -306 103 -331 6 -30 33 -72 48 -73 6 0 450 0
986 1 1215 2 1584 2 1775 1 245 -3 217 -9 259 54 20 30 36 57 36 60 0 3 -33 3
-72 -1 -40 -4 -89 -8 -108 -9 -19 -2 -35 -4 -35 -5 0 -16 -952 -26 -1305 -14
-102 4 -204 7 -227 8 -24 0 -43 3 -43 6 0 3 -15 5 -33 6 -34 1 -140 11 -197
18 -19 3 -91 8 -160 11 -255 11 -306 14 -330 20 -14 3 -38 7 -55 9 -34 5 -122
25 -145 33 -8 3 -22 7 -30 8 -8 1 -42 10 -75 19 -33 10 -67 20 -75 21 -61 13
-164 63 -233 111 -26 19 -52 34 -57 34 -6 0 -10 5 -10 10 0 6 -5 10 -11 10 -5
0 -8 -3 -6 -7z"/>
<path d="M10485 9515 c-33 -25 -64 -44 -68 -45 -4 0 -20 -8 -34 -17 -43 -28
-200 -80 -297 -98 -16 -3 -33 -8 -38 -11 -5 -3 -24 -8 -41 -11 -41 -7 -62 -11
-62 -13 0 -2 -24 -7 -77 -15 -44 -6 -110 -10 -328 -20 -69 -2 -136 -7 -150 -9
-29 -6 -114 -14 -307 -31 -217 -18 -1274 -19 -1498 0 -27 2 -92 6 -142 9 l-93
6 36 -55 37 -55 476 1 c262 1 934 0 1494 -1 1097 -3 1042 -5 1052 46 2 10 4
21 6 24 1 3 3 10 4 15 1 6 18 62 39 125 59 180 64 200 58 199 -4 0 -34 -20
-67 -44z"/>
<path d="M1880 8826 c0 -1 11 -24 24 -52 23 -48 54 -144 62 -194 3 -14 7 -32
9 -40 11 -38 19 -201 17 -365 -3 -475 -2 -706 3 -765 3 -36 7 -92 9 -125 3
-33 8 -80 11 -105 4 -25 9 -200 11 -390 2 -190 6 -372 9 -405 5 -57 6 -67 4
-97 0 -7 2 -45 5 -85 4 -59 18 -355 19 -388 0 -33 -20 -280 -23 -280 -1 0 -4
-29 -7 -65 -7 -75 -7 -188 2 -890 4 -283 6 -522 6 -530 0 -8 0 -53 0 -100 3
-325 1 -561 -5 -660 -4 -63 -9 -152 -11 -196 l-3 -82 417 4 c229 2 436 3 461
4 l46 0 -1 40 c0 22 -3 40 -6 40 -3 0 -6 20 -8 44 -1 25 -4 55 -7 68 -6 25 -9
75 -19 323 -12 314 -14 392 -14 540 1 244 1 265 -6 380 -3 61 -6 130 -5 155 0
25 3 181 5 345 2 165 7 318 10 340 4 22 19 60 34 85 16 25 44 74 64 110 59
107 93 125 254 133 18 1 33 4 33 7 0 3 15 5 33 6 32 1 163 12 227 19 19 2 73
6 120 9 47 4 101 9 120 11 19 3 78 7 130 10 52 2 95 5 95 6 0 0 12 2 28 3 15
2 29 5 31 7 2 2 6 47 9 99 6 95 14 162 22 190 2 8 7 31 10 50 3 19 12 48 19
65 56 130 106 257 116 290 6 22 14 47 17 55 3 8 7 20 8 25 2 6 10 34 19 64 18
63 20 85 6 76 -6 -4 -20 -8 -33 -11 -12 -2 -33 -6 -47 -9 -14 -3 -41 -8 -60
-11 -19 -3 -46 -7 -60 -10 -91 -17 -134 -23 -141 -18 -5 3 -9 1 -9 -5 0 -5 -8
-8 -17 -6 -10 1 -22 0 -28 -3 -5 -4 -19 -7 -30 -8 -11 -1 -37 -4 -57 -8 -21
-3 -55 -8 -75 -11 -21 -3 -48 -8 -61 -11 -12 -2 -80 -7 -149 -10 -70 -3 -131
-8 -135 -10 -4 -3 -8 0 -8 6 0 6 -5 8 -12 4 -6 -4 -61 -9 -122 -10 -61 -2
-164 -5 -228 -8 l-118 -6 6 183 c3 100 7 230 8 288 2 58 6 110 9 117 4 6 3 13
-3 17 -6 4 -8 10 -5 15 3 4 7 53 10 107 2 54 9 114 15 133 20 62 21 88 7 122
-10 25 -13 63 -10 134 2 54 5 142 7 194 2 52 5 103 5 114 1 11 6 16 15 13 8
-3 17 -3 20 1 4 3 19 7 34 8 15 1 41 5 57 8 101 19 417 27 545 13 120 -13 240
-36 258 -50 6 -5 12 -7 12 -4 0 9 101 -28 166 -61 114 -58 124 -64 124 -73 0
-5 6 -9 14 -9 8 0 47 -33 87 -73 l74 -73 -2 55 c-1 31 -3 307 -5 613 l-2 558
-51 -5 c-27 -2 -50 -5 -50 -5 0 -6 -55 -11 -135 -15 -52 -2 -95 -4 -95 -5 0 0
-85 -3 -190 -6 -104 -2 -260 -7 -345 -9 -212 -6 -443 -6 -515 0 -33 3 -132 7
-220 10 -88 2 -230 7 -315 10 -85 4 -191 8 -235 10 -44 1 -80 4 -80 4 0 1 -38
4 -85 7 -47 2 -100 6 -117 8 -18 2 -33 3 -33 2z"/>
<path d="M7610 8812 c0 -5 14 -29 30 -55 17 -26 30 -51 30 -55 0 -5 8 -17 18
-28 9 -10 23 -31 31 -46 8 -16 18 -28 23 -28 4 0 8 -5 8 -11 0 -6 11 -25 24
-42 44 -60 86 -157 101 -237 4 -19 8 -105 10 -190 2 -85 7 -202 11 -260 8
-135 8 -289 -1 -365 -11 -94 -15 -252 -29 -1265 -5 -295 -9 -402 -21 -468 -2
-14 4 -28 18 -38 32 -23 151 -98 157 -99 10 -1 108 -71 176 -126 110 -90 199
-186 272 -294 67 -100 63 -97 102 -59 19 19 38 34 42 34 4 0 8 7 8 15 0 8 3
15 8 15 4 0 46 37 93 83 110 104 199 187 279 257 34 30 78 70 97 88 19 18 51
45 71 60 21 15 39 30 42 33 10 13 165 109 175 109 1 0 1 -78 -2 -172 -2 -95
-6 -486 -9 -868 -6 -794 3 -727 -100 -770 -57 -24 -67 -25 -299 -26 -213 -1
-246 1 -292 18 -71 26 -88 30 -168 35 -81 5 -116 14 -205 56 -120 55 -157 87
-380 326 -52 56 -97 107 -98 112 -2 5 -8 7 -13 3 -5 -3 -9 0 -9 5 0 6 -4 11
-9 11 -6 0 -6 -12 -2 -27 5 -16 5 -37 1 -48 -4 -11 -5 -24 -1 -30 8 -14 11
-925 3 -925 -4 0 -7 -44 -8 -98 0 -53 -4 -165 -8 -248 -3 -84 -4 -158 -1 -166
5 -12 55 -14 308 -12 166 1 356 5 422 9 148 9 653 9 875 0 91 -4 203 -8 249
-10 l84 -3 41 46 c96 110 232 239 311 297 55 40 95 83 96 103 1 9 0 55 -1 102
-2 81 -1 594 1 710 1 54 -8 235 -12 235 -7 0 -12 1437 -6 1755 2 74 6 140 10
147 4 6 3 14 -2 17 -4 3 -6 23 -2 43 3 21 6 63 5 93 -1 81 -12 105 -95 216
-32 44 -63 84 -68 91 -6 7 -11 15 -11 18 0 4 -6 12 -12 19 -7 7 -44 56 -83
109 -38 53 -73 97 -77 97 -4 0 -22 -13 -40 -29 -40 -35 -115 -98 -154 -128
-16 -12 -38 -30 -49 -40 -67 -63 -189 -145 -235 -158 -25 -7 -59 -27 -80 -47
-22 -20 -86 -75 -165 -140 -11 -9 -66 -55 -122 -102 -57 -48 -103 -83 -103
-79 0 5 -4 3 -8 -3 -7 -11 -87 -64 -96 -64 -3 0 -5 123 -6 273 -1 319 -5 506
-16 672 -10 154 -10 221 0 265 4 19 10 96 12 170 3 96 9 138 18 145 7 6 42 16
77 24 35 7 71 15 79 18 8 3 22 7 30 8 8 1 35 6 60 10 25 4 69 10 99 15 60 8
313 5 351 -5 14 -3 39 -8 56 -10 45 -5 173 -44 208 -64 106 -58 227 -175 321
-309 28 -39 55 -72 60 -72 7 0 9 47 7 133 -6 255 -5 673 1 802 4 72 9 193 12
270 l5 140 -33 -1 c-17 -1 -73 -5 -124 -8 -51 -4 -166 -9 -255 -12 -90 -2
-192 -7 -228 -9 -228 -16 -358 -20 -715 -19 -357 0 -580 6 -700 19 -22 2 -69
7 -105 10 -36 3 -87 8 -115 11 -113 11 -143 14 -197 19 -32 2 -58 1 -58 -3z"/>
<path d="M1670 2678 c-21 -8 -33 -25 -37 -53 -2 -11 -6 -27 -10 -35 -3 -8 -7
-19 -8 -25 -2 -5 -13 -41 -25 -80 -12 -38 -32 -103 -45 -142 l-23 -72 22 11
c11 6 23 14 26 19 3 4 39 27 80 51 69 41 189 89 256 103 16 3 34 7 39 9 6 1
30 8 55 15 25 7 54 15 65 17 11 2 40 8 65 14 93 21 193 29 530 42 8 0 44 4 80
8 36 5 94 11 130 15 36 3 85 8 110 11 94 10 362 15 855 15 745 0 1141 -9 1248
-26 l28 -5 -33 46 c-18 26 -40 52 -50 58 -11 8 -98 11 -305 9 -322 -3 -941 -3
-2191 0 -464 1 -851 -1 -862 -5z"/>
<path d="M7202 2655 c-26 -43 -33 -65 -22 -66 17 -2 70 -1 73 1 6 5 551 10
1007 10 568 1 771 -5 940 -24 19 -2 60 -7 90 -10 30 -3 78 -8 105 -11 28 -3
111 -8 185 -10 196 -7 325 -18 360 -32 8 -3 24 -7 35 -8 11 -2 55 -13 98 -24
42 -12 85 -23 95 -24 82 -16 220 -73 282 -117 15 -11 33 -20 39 -20 6 0 11 -4
11 -8 0 -4 13 -15 29 -25 l30 -17 -9 27 c-4 16 -28 91 -53 168 -25 77 -47 149
-49 160 -2 11 -11 29 -21 39 -17 19 -37 20 -850 19 -457 -1 -929 -2 -1047 -3
-118 0 -219 0 -225 1 -5 1 -14 0 -20 -1 -21 -5 -508 0 -513 5 -3 3 -11 0 -19
-6 -7 -6 -13 -8 -13 -3 0 5 -117 9 -260 9 l-261 1 -17 -31z"/>
<path d="M5902 2071 c-11 -7 -19 -45 -27 -126 -13 -143 -16 -172 -21 -200 -6
-34 -12 -90 -18 -181 -3 -34 -9 -79 -15 -100 -6 -22 -13 -57 -16 -79 -3 -22
-8 -56 -12 -75 -14 -76 -11 -93 29 -178 22 -48 41 -91 42 -97 1 -5 7 -20 14
-32 7 -12 12 -29 12 -37 0 -9 5 -16 10 -16 6 0 10 -7 10 -15 0 -8 9 -37 21
-63 30 -68 36 -83 50 -124 7 -21 17 -38 21 -38 4 0 7 -3 6 -7 -2 -10 23 -95
33 -108 12 -18 96 -309 113 -397 4 -16 8 -38 11 -50 2 -13 6 -36 9 -53 13 -73
18 -87 28 -77 6 6 36 86 68 179 70 205 69 200 87 241 8 18 15 42 16 52 1 11 5
20 9 20 4 0 7 3 6 8 -5 13 35 132 44 132 4 0 8 9 8 19 0 11 5 23 10 26 6 4 8
10 5 15 -3 5 -1 11 5 15 6 4 8 10 5 15 -3 5 -1 17 4 27 5 10 22 54 39 98 16
44 33 89 37 100 5 11 9 22 10 25 0 3 9 30 20 60 10 30 20 60 21 66 1 6 16 40
33 75 35 73 37 97 15 183 -9 33 -17 66 -18 73 -1 7 -5 16 -9 19 -4 4 -7 21 -7
39 0 17 -4 35 -9 41 -6 5 -12 23 -15 41 -4 18 -18 74 -32 125 -14 51 -27 100
-29 109 -9 43 -68 190 -92 235 -12 21 -18 21 -267 21 -140 0 -259 -3 -264 -6z"/>
<path d="M5795 2030 c-4 -6 -11 -8 -16 -5 -5 4 -9 2 -9 -4 0 -5 -15 -13 -32
-16 -38 -8 -122 -40 -260 -97 -77 -32 -101 -46 -116 -71 -10 -18 -19 -36 -19
-41 -1 -5 -5 -12 -10 -15 -5 -3 -20 -24 -33 -46 -25 -41 -27 -43 -60 -84 -11
-13 -20 -33 -21 -45 -2 -29 2 -76 7 -101 14 -61 18 -132 18 -347 1 -146 5
-234 10 -230 6 3 24 21 40 40 54 61 154 157 347 334 31 29 47 61 53 111 2 18
9 50 15 72 6 22 13 58 16 80 4 22 9 49 12 60 7 22 11 38 18 75 2 14 20 94 40
179 19 85 35 156 35 158 0 8 -29 2 -35 -7z"/>
<path d="M6500 2036 c0 -3 39 -83 86 -178 47 -95 90 -182 94 -193 78 -201 87
-214 158 -240 153 -57 442 -214 466 -254 4 -6 12 -11 17 -11 10 0 8 34 -6 100
-3 14 -10 50 -16 80 -6 30 -12 60 -13 65 -2 6 -6 33 -10 60 -4 28 -9 64 -12
80 -2 17 -7 55 -10 85 -7 67 -26 113 -56 132 -13 9 -43 34 -68 58 -25 23 -54
48 -65 55 -33 23 -288 104 -408 130 -61 14 -122 27 -134 30 -13 3 -23 3 -23 1z"/>
</g>
</svg>
