<svg version="1.1" id="logo"
   style="z-index:30;width:100%;max-width:270px;position:absolute;filter:drop-shadow(5px 5px 2px rgb(0 0 0 / 0.4));opactity:0;"
   viewBox="0 0 793.70135 1122.52" sodipodi:docname="FOS.svg" inkscape:version="1.2 (dc2aeda, 2022-05-15)"
   xmlns:inkscape="http://www.inkscape.org/namespaces/inkscape"
   xmlns:sodipodi="http://sodipodi.sourceforge.net/DTD/sodipodi-0.dtd" xmlns="http://www.w3.org/2000/svg"
   xmlns:svg="http://www.w3.org/2000/svg">
   <defs id="defs22">
      <clipPath clipPathUnits="userSpaceOnUse" id="clipPath34">
         <path d="M 0,841.89 H 595.276 V 0 H 0 Z" id="path32" />
      </clipPath>
      <clipPath clipPathUnits="userSpaceOnUse" id="clipPath118">
         <path d="M 0,595.276 H 841.89 V 0 H 0 Z" id="path116" />
      </clipPath>
      <clipPath clipPathUnits="userSpaceOnUse" id="clipPath202">
         <path d="M 0,841.89 H 595.276 V 0 H 0 Z" id="path200" />
      </clipPath>
   </defs>
   <sodipodi:namedview id="namedview20" pagecolor="#505050" bordercolor="#eeeeee" borderopacity="1"
      inkscape:showpageshadow="0" inkscape:pageopacity="0" inkscape:pagecheckerboard="0" inkscape:deskcolor="#505050"
      showgrid="false" inkscape:zoom="0.21024124" inkscape:cx="280.63001" inkscape:cy="561.26002"
      inkscape:window-width="1419" inkscape:window-height="456" inkscape:window-x="0" inkscape:window-y="25"
      inkscape:window-maximized="0" inkscape:current-layer="g26">
      <inkscape:page x="0" y="0" id="page24" width="793.70135" height="1122.52" />
      <inkscape:page x="813.70133" y="0" id="page108" width="1122.52" height="793.70133" />
      <inkscape:page x="1956.2213" y="0" id="page192" width="793.70133" height="1122.52" />
   </sodipodi:namedview>
   <g id="g26" inkscape:groupmode="layer" inkscape:label="Page 1"
      transform="matrix(1.3333333,0,0,-1.3333333,0,1122.52)">
      <g id="g28">
         <g id="g30" clip-path="url(#clipPath34)">
            <g id="g36" transform="translate(511.54,436.9806)">
               <path
                  d="m 0,0 c 0,-3.078 0.057,-6.158 -0.016,-9.234 -0.08,-3.379 -0.364,-6.754 -0.402,-10.133 -0.028,-2.531 0.224,-5.066 0.298,-7.6 0.357,-12.153 0.697,-24.306 1.042,-36.46 0.009,-0.307 0.03,-0.618 -0.001,-0.923 -0.923,-8.991 0.811,-17.917 0.583,-26.917 -0.235,-9.293 0.239,-18.618 0.751,-27.91 0.396,-7.191 1.941,-14.155 6.367,-20.143 0.393,-0.532 0.675,-1.146 1.184,-2.022 -2.485,0.222 -4.61,0.429 -6.739,0.599 -5.056,0.404 -10.111,1.037 -15.173,1.101 -3.552,0.045 -7.007,0.591 -10.506,0.864 -2.776,0.216 -5.622,-0.458 -8.434,-0.763 -0.526,-0.057 -1.039,-0.233 -1.725,-0.395 -0.03,0.527 -0.173,0.986 -0.06,1.369 1.527,5.191 2.202,10.482 2.25,15.897 0.072,8.313 0.407,16.623 0.48,24.935 0.059,6.538 -0.16,13.077 -0.146,19.615 0.005,1.984 0.547,3.967 0.551,5.95 0.021,9.009 -0.066,18.017 -0.106,27.025 -0.015,3.465 0.024,6.931 -0.023,10.397 -0.061,4.54 -0.28,9.08 -0.244,13.618 0.027,3.294 0.371,6.585 0.55,9.879 0.083,1.53 0.167,3.063 0.156,4.595 -0.093,11.549 -0.134,23.099 -0.351,34.646 -0.106,5.686 -0.563,11.364 -0.833,17.048 -0.039,0.836 -0.178,1.818 0.183,2.489 0.826,1.536 0.249,2.594 -0.716,3.707 -0.394,0.455 -0.836,1.003 -0.93,1.563 -0.65,3.915 -3.428,6.6 -5.512,9.676 -1.704,2.513 -3.513,4.953 -5.584,7.858 2.322,0 4.281,0.083 6.231,-0.018 3.839,-0.197 7.672,-0.495 11.507,-0.756 0.461,-0.032 1.014,0.058 1.363,-0.164 2.916,-1.854 6.197,-1.287 9.357,-1.44 1.042,-0.051 2.103,0.229 3.152,0.384 2.497,0.368 4.992,0.754 7.488,1.127 1.384,0.207 2.292,-0.379 3.047,-1.555 2.616,-4.078 5.015,-8.258 6.89,-12.743 0.794,-1.9 1.922,-3.662 2.917,-5.476 1.436,-2.618 2.919,-5.211 4.33,-7.842 2.138,-3.986 4.094,-8.077 6.376,-11.977 C 24.4,21.583 29.409,13.388 34.357,5.158 34.58,4.786 34.854,4.445 35.478,4.145 v 2.844 c 10e-4,9.238 0.103,18.476 -0.038,27.711 -0.085,5.606 -0.346,11.226 -0.892,16.804 -0.595,6.088 -2.458,11.85 -5.671,17.121 -0.184,0.301 -0.239,0.68 -0.434,1.26 1.32,0 2.46,0.139 3.557,-0.022 6.892,-1.013 13.79,-1.111 20.709,-0.35 0.68,0.074 1.49,0.176 2.052,-0.107 3.314,-1.667 6.643,-0.492 9.962,-0.179 2.14,0.202 4.266,0.566 6.409,0.74 0.852,0.07 1.731,-0.178 2.962,-0.324 C 73.349,68.45 72.81,67.638 72.321,66.796 69.74,62.348 68.24,57.579 67.813,52.432 66.464,36.217 67.005,19.976 67.003,3.742 c 0,-6.006 0.022,-12.014 -0.135,-18.016 -0.1,-3.832 -0.749,-7.658 -0.738,-11.485 0.031,-11.544 0.301,-23.087 0.409,-34.632 0.152,-16.32 0.21,-32.641 0.371,-48.961 0.105,-10.517 1.713,-20.781 5.545,-30.633 0.076,-0.196 0.073,-0.421 0.108,-0.643 -3.997,0.413 -7.946,0.935 -11.912,1.191 -2.746,0.176 -5.515,-0.025 -8.274,-0.03 -0.998,-0.002 -2.061,-0.135 -2.982,0.151 -4.048,1.254 -8.076,0.541 -12.114,0.067 -1.128,-0.132 -2.252,-0.303 -3.682,-0.498 0.492,1.219 0.939,2.239 1.319,3.284 0.902,2.488 1.964,4.826 1.628,7.72 -0.332,2.856 0.336,5.818 0.423,8.737 0.161,5.46 0.219,10.923 0.321,16.384 0.093,4.917 0.218,9.834 0.271,14.751 0.023,2.229 -0.131,4.459 -0.139,6.689 -0.02,5.468 0.053,10.937 -0.033,16.404 -0.024,1.504 -0.223,3.1 -0.774,4.482 -1.56,3.913 -3.233,7.791 -5.071,11.581 -2.209,4.554 -4.65,8.995 -6.963,13.5 -4.023,7.837 -9.314,14.823 -14.537,21.864 -2.008,2.706 -3.821,5.559 -5.678,8.376 C 3.029,-3.946 1.768,-1.868 0.472,0.188 0.314,0.125 0.157,0.063 0,0"
                  style="fill:#FFFFFF;fill-opacity:1;fill-rule:nonzero;stroke:none" id="path38" />
            </g>
            <g id="g40" transform="translate(412.709,453.3859)">
               <path
                  d="m 0,0 c -0.235,-20.567 -0.467,-40.739 -0.704,-61.44 4.013,3.307 8.511,4.845 12.737,6.933 4.739,2.343 9.17,5.304 13.821,7.841 1.723,0.939 2.228,2.073 2.217,4.004 -0.07,12.469 -0.019,24.938 0.07,37.408 0.008,1.192 -0.513,1.716 -1.423,2.042 C 23.263,-1.973 19.867,-0.4 16.303,0.321 13.038,0.982 9.582,0.836 6.213,0.795 4.119,0.769 2.03,0.275 0,0 m -37.152,30.417 c 3.214,0 6.441,0.174 9.643,-0.035 7.514,-0.49 15.014,-1.199 22.526,-1.733 1.336,-0.095 2.752,0.043 4.041,0.398 1.713,0.471 3.34,0.746 5.169,0.647 3.37,-0.183 6.765,0.077 10.15,0.169 5.08,0.138 10.16,0.254 15.237,0.455 2.05,0.081 3.641,-0.562 5.187,-1.966 7.005,-6.363 14.09,-12.64 21.203,-18.881 1.068,-0.937 1.684,-1.86 1.706,-3.307 0.115,-7.379 0.294,-14.758 0.448,-22.136 0.005,-0.231 0.041,-0.482 -0.033,-0.689 -1.285,-3.588 -0.185,-7.284 -0.499,-10.922 -0.311,-3.598 -0.392,-7.219 -0.48,-10.832 -0.16,-6.465 -0.28,-12.931 -0.343,-19.398 -0.014,-1.314 -0.496,-2.201 -1.573,-2.845 -4.148,-2.486 -8.293,-4.977 -12.446,-7.456 -1.317,-0.787 -2.651,-1.545 -4.18,-2.434 2.848,-2.451 5.564,-4.806 8.299,-7.14 3.511,-2.994 7.026,-5.982 10.564,-8.943 0.779,-0.652 1.055,-1.406 1.075,-2.406 0.108,-5.536 0.347,-11.071 0.388,-16.609 0.028,-3.763 -0.294,-7.528 -0.28,-11.292 0.024,-5.617 0.328,-11.234 0.292,-16.85 -0.054,-8.695 -0.306,-17.39 -0.444,-26.085 -0.024,-1.536 -0.008,-3.09 0.193,-4.608 0.163,-1.238 -0.197,-2.117 -1.165,-2.789 -4.482,-3.11 -8.993,-6.18 -13.449,-9.329 -1.166,-0.824 -2.189,-1.856 -3.238,-2.836 -0.445,-0.415 -0.729,-1.008 -1.186,-1.406 -4.225,-3.68 -8.472,-7.337 -12.963,-11.215 0.16,1.008 0.32,1.832 0.417,2.664 0.418,3.582 1.067,7.159 1.183,10.751 0.561,17.305 1.116,34.613 1.379,51.924 0.116,7.676 -0.442,15.363 -0.759,23.043 -0.028,0.697 -0.354,1.541 -0.833,2.037 -4.957,5.144 -9.973,10.231 -15.144,15.508 -4.765,-2.556 -9.495,-5.072 -14.191,-7.649 -0.375,-0.206 -0.652,-0.801 -0.745,-1.261 -0.15,-0.747 -0.14,-1.532 -0.148,-2.302 -0.115,-10.697 -0.366,-21.396 -0.277,-32.094 0.057,-6.851 1.079,-13.641 3.157,-20.196 0.755,-2.383 2.05,-4.593 3.197,-7.094 -2.652,0.19 -5.252,0.168 -7.778,0.594 -7.62,1.286 -15.173,0.31 -22.741,-0.403 -3.12,-0.294 -6.235,-0.648 -9.706,-1.012 0.283,0.908 0.372,1.398 0.58,1.829 2.034,4.223 2.977,8.694 3.062,13.36 0.222,12.159 0.431,24.318 0.66,36.476 0.063,3.388 0.259,6.774 0.247,10.16 -0.014,4.291 -0.165,8.581 -0.291,12.871 -0.021,0.683 -0.203,1.364 -0.341,2.038 -0.462,2.273 -0.697,4.518 -0.274,6.863 0.366,2.028 0.438,4.129 0.445,6.198 0.039,11.63 -0.031,23.261 0.04,34.89 0.04,6.617 0.117,13.242 0.51,19.844 0.159,2.691 0.627,5.262 -0.637,7.819 -0.311,0.63 -0.242,1.525 -0.142,2.27 0.776,5.838 0.389,11.67 0.007,17.506 -0.08,1.228 -0.137,2.467 -0.072,3.693 0.196,3.667 -1.258,6.733 -3.355,9.581 -0.536,0.727 -1.109,1.426 -1.664,2.139 0.124,0.142 0.248,0.284 0.372,0.426"
                  style="fill:#FFFFFF;fill-opacity:1;fill-rule:nonzero;stroke:none" id="path42" />
            </g>
            <g id="g44" transform="translate(16.1504,355.6036)">
               <path
                  d="m 0,0 c 3.603,-3.838 7.065,-7.428 10.413,-11.12 3.424,-3.777 7.745,-6.017 12.509,-7.469 1.127,-0.344 2.452,0.025 3.66,-0.136 1.414,-0.187 2.932,-0.338 4.159,-0.978 1.209,-0.63 2.359,-0.993 3.681,-1.014 4.308,-0.068 8.616,-0.21 12.924,-0.215 2.716,-0.004 5.331,0.569 7.728,1.948 1.148,0.66 1.736,1.465 1.728,2.936 -0.069,12.859 -0.099,25.719 -0.018,38.577 0.03,4.762 0.434,9.52 0.584,14.282 0.089,2.831 0.016,5.668 0.016,9.038 -4.053,-2.37 -7.483,-4.598 -10.492,-7.47 -1.886,-1.8 -3.892,-3.474 -5.826,-5.224 -1.937,-1.754 -3.874,-3.509 -5.77,-5.305 -2.893,-2.744 -5.75,-5.524 -8.673,-8.336 -0.456,0.435 -0.725,0.605 -0.874,0.848 -4.247,6.95 -9.906,12.487 -16.747,16.866 -2.068,1.324 -4.025,2.823 -6.104,4.13 -1.004,0.633 -1.269,1.41 -1.17,2.501 0.191,2.143 0.424,4.29 0.461,6.439 0.191,11.31 0.315,22.622 0.488,33.933 0.071,4.614 0.2,9.227 0.312,13.84 0.042,1.753 0.109,3.504 0.162,5.256 0.005,0.154 -0.026,0.312 0,0.461 1.46,8.421 -0.32,16.833 -0.057,25.235 0.179,5.731 -1.111,10.749 -4.527,15.337 -1.741,2.339 -3.174,4.909 -4.737,7.38 -0.31,0.49 -0.578,1.009 -1.044,1.831 5.846,-0.578 11.335,-1.132 16.826,-1.658 2.371,-0.227 4.745,-0.526 7.122,-0.573 8.849,-0.174 17.701,-0.431 26.547,-0.321 6.991,0.086 13.975,0.688 20.965,1.016 3.381,0.159 6.769,0.199 10.153,0.319 2.612,0.092 5.222,0.279 7.834,0.319 1.935,0.03 2.351,-0.335 2.293,-2.298 -0.172,-5.842 -0.451,-11.681 -0.697,-17.521 -0.042,-0.997 -0.195,-1.993 -0.183,-2.988 0.103,-7.849 0.233,-15.699 0.352,-23.547 0.01,-0.648 10e-4,-1.296 10e-4,-1.944 -0.152,-0.04 -0.305,-0.08 -0.458,-0.119 -0.315,0.368 -0.68,0.703 -0.938,1.107 -2.379,3.722 -5.249,7.031 -8.505,9.994 -2.312,2.103 -5.088,3.377 -8.092,4.219 -10.587,2.965 -20.959,1.688 -31.356,-1.399 0,-2.701 0.054,-5.304 -0.024,-7.903 -0.036,-1.211 -0.32,-2.415 -0.506,-3.62 -0.152,-0.985 -0.556,-1.991 -0.456,-2.947 1.422,-13.583 0.681,-27.218 1.02,-40.825 0.003,-0.115 0.135,-0.228 0.287,-0.467 1.444,1.125 2.908,2.209 4.31,3.369 4.681,3.877 9.339,7.783 14.012,11.67 0.411,0.341 0.835,0.749 1.323,0.902 4.718,1.476 8.003,5.071 11.767,7.942 2.238,1.707 4.334,3.599 6.635,5.527 0.601,-0.783 1.255,-1.6 1.873,-2.444 3.044,-4.154 6.022,-8.359 9.143,-12.454 1.214,-1.592 1.504,-3.264 1.435,-5.165 C 85.28,66.612 85.118,61.46 85.04,56.308 84.948,50.227 84.926,44.144 84.927,38.062 84.928,30.994 84.978,23.928 85.023,16.86 85.077,8.486 84.883,0.116 85.768,-8.248 c 0.368,-3.478 -0.212,-7.048 -0.255,-10.576 -0.036,-2.995 0.082,-5.991 0.132,-8.988 0.066,-3.925 0.097,-7.852 0.22,-11.776 0.037,-1.188 -0.374,-2.014 -1.229,-2.806 -4.966,-4.6 -9.938,-9.195 -14.801,-13.902 -1.195,-1.157 -2.368,-1.504 -3.921,-1.277 -4.028,0.588 -8.051,1.312 -12.103,1.601 -3.589,0.257 -7.215,-0.017 -10.824,-0.024 -2.524,-0.004 -5.048,0.033 -7.571,0.083 -1.074,0.02 -2.157,0.257 -3.216,0.165 -9.741,-0.842 -19.504,-0.747 -29.265,-0.797 -0.385,-0.002 -0.771,0.001 -1.154,0.034 -2.043,0.178 -2.562,0.676 -2.5,2.763 0.102,3.459 0.33,6.913 0.466,10.372 0.221,5.61 0.575,11.223 0.575,16.834 C 0.323,-18.021 0.067,-9.501 -0.076,-0.98 -0.08,-0.754 -0.042,-0.526 0,0"
                  style="fill:#FFFFFF;fill-opacity:1;fill-rule:nonzero;stroke:none" id="path46" />
            </g>
            <g id="g48" transform="translate(138.144,451.838)">
               <path
                  d="m 0,0 c 0,-1.409 -0.023,-2.221 0.003,-3.032 0.297,-9.141 0.541,-18.27 0.077,-27.428 -0.401,-7.904 -0.127,-15.842 -0.214,-23.764 -0.014,-1.253 0.363,-2.15 1.229,-3.042 2.623,-2.701 5.228,-5.425 7.712,-8.254 3.5,-3.986 7.758,-6.973 12.253,-9.676 0.559,-0.335 1.18,-0.566 1.949,-0.928 -0.214,6.925 -0.439,13.606 -0.619,20.289 -0.119,4.439 0.485,8.913 -0.712,13.303 -0.155,0.563 -0.044,1.234 0.07,1.832 1.093,5.725 0.891,11.463 0.285,17.218 -0.119,1.137 -0.483,1.966 -1.341,2.776 -3.632,3.429 -7.219,6.908 -10.734,10.455 C 7.855,-8.129 5.946,-5.818 3.89,-3.649 2.804,-2.504 1.59,-1.482 0,0 m -33.008,32.554 c 1.014,0 1.756,0.025 2.494,-0.004 3.843,-0.151 7.684,-0.348 11.527,-0.455 1.22,-0.034 2.456,0.293 3.668,0.212 1.272,-0.085 2.521,-0.478 3.785,-0.704 0.884,-0.159 1.961,-0.649 2.634,-0.328 2.937,1.406 6.022,1.182 9.077,1.091 C 3.788,32.258 7.39,31.875 11,31.701 c 1.584,-0.077 2.748,-0.758 3.805,-1.869 2.07,-2.177 4.237,-4.26 6.292,-6.45 0.723,-0.77 1.535,-1.66 1.786,-2.631 0.651,-2.515 2.173,-4.229 4.034,-5.955 4.683,-4.345 9.146,-8.927 13.702,-13.41 2.304,-2.268 4.566,-4.585 6.951,-6.764 0.995,-0.91 1.494,-1.817 1.429,-3.176 -0.208,-4.305 -0.409,-8.613 -0.461,-12.922 -0.032,-2.604 0.299,-5.211 0.321,-7.817 0.039,-4.464 -0.011,-8.929 -0.072,-13.393 -0.053,-3.845 -0.226,-7.691 -0.249,-11.538 -0.034,-5.766 0.064,-11.511 0.688,-17.275 0.569,-5.263 0.375,-10.606 0.526,-15.914 0.018,-0.601 0.094,-1.199 0.149,-1.877 5.147,-1.185 10.178,-1.631 15.337,-0.429 5.353,1.247 8.66,5.282 12.831,8.573 -0.195,-0.9 -0.218,-1.885 -0.616,-2.684 -1.948,-3.911 -3.805,-7.889 -6.057,-11.623 -2.774,-4.598 -5.939,-8.958 -8.862,-13.469 -0.734,-1.132 -1.646,-1.741 -2.932,-1.973 -3.319,-0.597 -6.63,-1.235 -10.082,-1.882 -0.181,-2.911 -0.452,-5.735 -0.51,-8.563 -0.099,-4.85 -0.115,-9.704 -0.072,-14.555 0.051,-5.868 1.797,-11.339 4.1,-16.665 0.208,-0.48 0.41,-0.963 0.718,-1.687 -1.771,0.315 -3.328,0.776 -4.9,0.834 -3.447,0.126 -6.901,0.035 -10.353,0.062 -0.912,0.007 -1.823,0.128 -2.735,0.187 -0.68,0.044 -1.442,0.287 -2.024,0.065 -2.089,-0.797 -4.23,-0.535 -6.371,-0.621 -3.437,-0.138 -6.866,-0.479 -10.501,-0.751 0.499,1.019 0.944,1.976 1.432,2.909 2.599,4.981 3.177,10.391 3.295,15.872 0.181,8.461 0.257,16.926 0.379,25.452 -7.37,3.34 -15.004,6.318 -21.621,12.139 0,-1.113 0,-1.761 -0.001,-2.41 -0.015,-12.168 -0.043,-24.336 -0.041,-36.503 0.002,-9.925 -0.057,-19.852 0.097,-29.775 0.102,-6.608 0.907,-13.165 2.453,-20.031 -3.671,1.918 -6.993,3.771 -9.968,6.133 -2.159,1.714 -4.188,3.638 -6.037,5.683 -1.645,1.818 -3.412,3.279 -5.772,4.008 -4.24,1.307 -7.065,4.518 -9.977,7.579 -0.365,0.384 -0.52,1.132 -0.494,1.698 0.232,5.071 0.591,10.138 0.779,15.21 0.113,3.065 -0.066,6.139 -0.014,9.206 0.062,3.688 0.207,7.374 0.359,11.059 0.107,2.61 0.379,5.216 0.409,7.826 0.065,5.467 0.036,10.937 0.015,16.404 -0.031,8.15 -0.126,16.299 -0.123,24.449 0.004,8.616 0.08,17.232 0.145,25.847 0.092,12.391 0.163,24.781 0.349,37.17 0.03,2.036 0.622,4.062 0.924,6.097 0.112,0.746 0.218,1.508 0.186,2.257 -0.33,7.916 -0.737,15.828 -1.013,23.746 -0.09,2.591 -0.588,5.011 -1.775,7.311 -1.233,2.388 -2.418,4.802 -3.866,7.689"
                  style="fill:#FFFFFF;fill-opacity:1;fill-rule:nonzero;stroke:none" id="path50" />
            </g>
            <g id="g52" transform="translate(372.1533,296.9835)">
               <path
                  d="m 0,0 c -1.44,0 -2.428,-0.024 -3.414,0.005 -4.765,0.14 -9.528,0.36 -14.294,0.415 -2.145,0.024 -4.29,-0.368 -6.438,-0.4 -4.465,-0.067 -8.933,0.01 -13.399,-0.034 -1.665,-0.015 -3.207,0.282 -4.61,1.188 -1.17,0.756 -2.339,0.969 -3.699,0.393 -2.457,-1.038 -4.953,-1.217 -7.655,-0.739 -2.47,0.437 -5.064,0.201 -7.603,0.214 -2.882,0.015 -5.039,1.129 -6.885,3.464 -3.62,4.58 -7.456,8.995 -11.344,13.351 -1.421,1.593 -3.29,2.778 -4.877,4.233 -2.089,1.915 -4.18,3.839 -6.128,5.893 -3.018,3.184 -5.758,6.648 -8.908,9.688 -3.421,3.302 -4.518,7.236 -4.732,11.809 -0.298,6.368 -0.985,12.717 -1.543,19.072 -0.222,2.523 -0.561,5.037 -0.808,7.559 -0.032,0.329 0.168,0.682 0.284,1.109 6.386,-7.641 12.085,-15.779 21.927,-19.773 0,2.062 -0.006,3.877 0.001,5.693 0.02,6.386 0.151,12.775 0.044,19.159 -0.175,10.54 -0.556,21.075 -0.739,31.615 -0.066,3.827 0.288,7.661 0.272,11.491 -0.029,6.926 -0.206,13.85 -0.283,20.775 -0.01,0.906 -0.035,1.942 0.362,2.7 1.343,2.567 0.823,5.194 0.681,7.87 -0.219,4.146 -0.144,8.308 -0.279,12.46 -0.118,3.605 -0.153,7.254 -1.472,10.674 -0.877,2.274 -2.03,4.441 -3.132,6.813 2.018,0.472 4.042,0.093 6.056,-0.03 5.034,-0.308 9.992,-1.61 15.089,-1.125 3.135,0.298 6.275,0.561 9.415,0.817 3.304,0.271 3.643,-0.011 3.663,-3.262 0.051,-8.313 0.062,-16.626 0.103,-24.94 0.017,-3.451 -0.06,-6.894 1.07,-10.259 0.399,-1.187 0.245,-2.584 0.224,-3.883 -0.053,-3.463 -0.207,-6.925 -0.26,-10.389 -0.17,-11.313 -0.262,-22.63 -0.513,-33.942 -0.053,-2.358 -0.848,-4.694 -0.958,-7.055 -0.18,-3.834 -0.045,-7.682 -0.098,-11.523 -0.064,-4.615 -0.283,-9.231 -0.26,-13.845 0.032,-6.073 0.251,-12.143 0.355,-18.215 0.04,-2.384 0.135,-4.782 -0.07,-7.15 -0.183,-2.114 0.812,-3.587 2.2,-4.793 4.462,-3.878 9.034,-7.628 14.23,-10.518 1.452,-0.808 2.939,-1.553 4.736,-2.497 0,1.176 0.009,1.926 -0.002,2.675 -0.154,10.389 -0.307,20.779 -0.465,31.169 -0.15,9.773 -0.345,19.545 -0.424,29.318 -0.017,2.057 0.494,4.112 0.576,6.176 0.159,3.991 0.226,7.987 0.26,11.981 0.073,8.468 0.008,16.937 0.174,25.402 0.143,7.356 0.6,14.706 0.781,22.062 0.131,5.306 -0.02,10.618 0.057,15.926 0.056,4.024 -1.587,7.482 -3.487,10.821 -1.431,2.516 -3.185,4.849 -4.719,7.15 3.382,0 6.944,0.237 10.463,-0.047 8.297,-0.67 16.582,-1.001 24.89,-0.324 0.995,0.081 2.006,0.123 2.998,0.041 1.41,-0.117 1.773,-0.685 1.264,-1.985 -1.694,-4.328 -1.681,-8.771 -1.475,-13.356 0.34,-7.529 0.237,-15.082 0.179,-22.624 -0.015,-1.816 -0.798,-3.62 -0.858,-5.443 -0.127,-3.828 -0.01,-7.664 0.01,-11.496 0.002,-0.308 0.05,-0.615 0.054,-0.922 0.122,-11.086 0.272,-22.171 0.317,-33.257 C -3.09,96.03 -3.658,94.702 -3.974,93.379 -4.236,92.272 -4.747,91.174 -4.76,90.068 -4.995,68.667 -5.216,47.266 -5.329,25.864 -5.353,21.408 -4.944,16.949 -4.718,12.492 -4.562,9.436 -3.517,6.643 -2.117,3.962 -1.519,2.815 -0.898,1.68 0,0"
                  style="fill:#FFFFFF;fill-opacity:1;fill-rule:nonzero;stroke:none" id="path54" />
            </g>
            <g id="g56" transform="translate(190.4214,445.0939)">
               <path
                  d="m 0,0 c -0.123,0.663 -0.242,1.009 -0.243,1.356 -0.025,7.699 -0.004,15.397 -0.063,23.096 -0.028,3.613 -0.248,7.224 -0.302,10.838 -0.039,2.605 0.466,3.069 3.114,3.072 8.626,0.011 17.252,-0.022 25.878,0.022 2.076,0.011 3.956,-0.554 5.704,-1.557 0.974,-0.558 1.855,-0.635 2.828,-0.158 2.921,1.432 6.029,1.563 9.221,1.545 7.006,-0.041 14.015,0.01 21.02,0.179 6.382,0.153 12.759,0.515 19.138,0.772 0.613,0.025 1.248,0.05 1.84,-0.077 1.236,-0.266 1.947,-0.903 1.977,-2.365 0.25,-11.848 0.562,-23.695 0.882,-35.541 0.041,-1.528 0.235,-3.052 0.399,-5.078 -0.624,0.687 -0.934,1.03 -1.246,1.372 C 87.718,0.136 85.325,2.832 82.841,5.44 81.783,6.551 80.333,6.947 78.809,6.813 75.061,6.484 71.315,6.125 67.573,5.737 65.754,5.548 63.944,5.27 61.872,4.999 c 0,-0.851 0,-1.595 10e-4,-2.339 0.006,-8.152 0.017,-16.304 0.018,-24.456 0.001,-4.467 -0.053,-8.934 -0.002,-13.401 0.019,-1.676 -0.248,-3.19 -1.305,-4.541 -0.791,-1.012 -0.872,-2.15 -0.804,-3.463 0.414,-8.068 0.795,-16.141 0.98,-24.216 0.187,-8.159 0.044,-16.327 0.218,-24.486 0.113,-5.302 0.545,-10.596 0.814,-15.895 0.32,-6.297 0.405,-12.616 1.01,-18.885 0.343,-3.556 1.313,-7.097 2.385,-10.525 1.027,-3.286 2.554,-6.415 3.853,-9.616 0.109,-0.272 0.151,-0.57 0.278,-1.062 -2.638,0.157 -5.131,0.352 -7.628,0.44 -2.995,0.106 -5.994,0.185 -8.99,0.159 -2.693,-0.024 -5.39,-0.362 -8.075,-0.264 -1.812,0.067 -3.603,0.655 -5.405,1.004 -4.477,0.868 -8.871,0.369 -13.226,-0.802 -0.911,-0.244 -1.84,-0.424 -3.308,-0.759 2.67,4.262 4.097,8.368 5.041,12.641 1.144,5.185 2.003,10.392 2.046,15.743 0.102,12.7 0.036,25.414 0.687,38.09 0.621,12.077 0.793,24.149 0.886,36.229 0.054,7.076 -0.176,14.154 -0.184,21.231 -10e-4,1.174 0.477,2.35 0.735,3.525 0.097,0.441 0.299,0.885 0.281,1.321 C 31.901,-12.72 31.636,-6.112 31.256,0.49 31.193,1.593 30.693,2.705 30.239,3.745 29.466,5.51 28.153,6.323 26.101,6.412 21.805,6.6 17.521,7.071 13.235,7.444 10.008,7.724 7.17,7.044 4.864,4.544 3.431,2.99 1.774,1.642 0,0"
                  style="fill:#FFFFFF;fill-opacity:1;fill-rule:nonzero;stroke:none" id="path58" />
            </g>
            <g id="g60" transform="translate(215.4585,544.2335)">
               <path
                  d="m 0,0 c -0.29,9.5 -0.572,19 -0.877,28.5 -0.025,0.761 -0.028,1.56 -0.028,1.56 0,0 -1.588,1.07 -2.843,1.842 -1.636,1.006 -2.668,1.754 -4.093,2.937 -0.13,0.108 -0.506,1.022 -0.506,1.022 l -1.079,0.198 c 0,0 -2.144,1.621 -3.244,2.594 -0.333,0.294 -1.754,1.45 -1.754,1.45 0,0 -0.002,-1.16 0,-1.526 0.025,-5.224 0.06,-10.449 0.112,-15.674 0.028,-2.766 0.312,-5.552 0.055,-8.289 -0.065,-0.692 0.042,-2.232 0.042,-2.232 0,0 0.598,-0.644 1.181,-1.143 C -8.673,7.511 -4.344,3.748 0,0 m -31.148,56.033 c 2.051,0 3.959,-0.054 5.861,0.013 2.764,0.098 5.522,0.324 8.285,0.412 1.427,0.045 2.878,0.027 4.283,-0.191 0.7,-0.109 1.351,-0.688 1.973,-1.128 8.094,-5.716 16.178,-11.447 24.268,-17.168 0.433,-0.306 0.9,-0.562 1.291,-0.803 -0.21,-4.919 -0.576,-9.74 -0.576,-14.561 0,-4.53 0.4,-9.061 0.595,-13.592 0.085,-1.986 0.151,-3.973 0.208,-5.961 0.024,-0.858 0.932,-3.583 0.932,-3.583 L 15.16,-1.795 c 0,0 0.155,-11.878 0.465,-17.805 0.305,-5.823 0.996,-11.626 1.52,-17.483 -5.636,0.148 -11.332,0.297 -17.348,0.455 0,0.676 -0.03,1.568 0.006,2.457 0.192,4.696 0.445,9.391 0.562,14.089 0.018,0.709 -0.365,1.716 -0.848,2.236 -1.51,1.628 -3.063,3.266 -4.829,4.593 -2.86,2.148 -5.903,4.051 -8.796,6.008 0,-7.923 -0.041,-15.745 0.011,-23.567 0.052,-7.731 0.405,-15.449 1.869,-23.656 -1.001,0.655 -1.462,0.968 -1.934,1.264 -4.804,3.024 -9.516,6.231 -14.946,8.081 -1.669,0.569 -2.182,1.587 -2.126,3.298 0.265,8.144 0.206,16.298 1.223,24.41 0.363,2.892 0.432,5.831 0.477,8.75 0.073,4.65 0.156,9.301 0.201,13.952 0.005,0.56 -0.78,2.926 -0.78,2.926 l 0.808,1.344 c 0,0 0.002,4.628 -0.023,6.942 -0.034,3.21 -0.369,6.405 -0.238,9.645 0.151,3.751 -0.264,7.523 -0.378,11.287 -0.141,4.683 -0.173,9.371 -0.369,14.052 -0.06,1.418 -0.505,2.82 -0.835,4.55"
                  style="fill:#FFFFFF;fill-opacity:1;fill-rule:nonzero;stroke:none" id="path62" />
            </g>
            <g id="g64" transform="translate(378.7314,582.8698)">
               <path
                  d="m 0,0 v -60.198 c 4.338,0.725 7.898,2.434 11.258,4.594 1.535,0.987 4.292,3.294 4.292,3.294 0,0 0.118,3.287 0.101,4.974 -0.002,0.154 -10e-4,0.308 -10e-4,0.461 -0.034,8.836 0.157,17.672 -0.742,26.493 -0.341,3.345 -0.246,6.759 -0.065,10.126 0.207,3.875 -2.032,5.833 -5.086,7.328 C 9.413,-2.76 9.064,-2.589 8.699,-2.483 5.994,-1.701 3.284,-0.935 0,0 m -21.509,16.815 c 3.817,0 7.5,-0.006 11.185,0.002 2.68,0.006 5.362,0.065 8.042,0.038 2.995,-0.028 5.989,-0.142 8.984,-0.191 4.461,-0.074 8.925,-0.227 13.382,-0.124 1.401,0.032 2.362,-0.282 3.19,-1.316 0.527,-0.66 1.094,-1.287 1.634,-1.937 1.613,-1.941 3.113,-3.992 4.864,-5.799 1.534,-1.584 2.273,-3.165 2.226,-5.486 -0.097,-4.83 0.418,-9.669 0.394,-14.502 -0.076,-14.536 -0.289,-29.071 -0.444,-43.605 -0.014,-1.309 -0.196,-2.658 0.056,-3.917 0.54,-2.696 -0.514,-4.663 -2.17,-6.671 -2.198,-2.663 -4.175,-5.521 -6.099,-8.394 -0.417,-0.623 -1.14,-1.66 -1.14,-1.66 0,0 -1.373,0.016 -2.221,0.04 -5.451,0.159 -10.911,0.007 -16.368,-0.061 -1.768,-0.022 -6.546,-0.186 -6.546,-0.186 0,0 -0.564,0.366 -1.274,0.854 -4.429,3.047 -8.789,6.192 -13.201,9.264 -0.548,0.381 -1.345,1.126 -1.345,1.126 0,0 -0.029,1.092 -0.024,1.611 0.097,10.155 0.156,20.31 0.287,30.465 0.121,9.379 0.4,18.757 0.44,28.135 0.017,3.984 -0.099,8.015 -0.709,11.938 -0.488,3.139 -1.815,6.146 -2.77,9.211 -0.11,0.355 -0.226,0.707 -0.373,1.165"
                  style="fill:#FFFFFF;fill-opacity:1;fill-rule:nonzero;stroke:none" id="path66" />
            </g>
            <g id="g68" transform="translate(415.8105,495.776)">
               <path
                  d="m 0,0 c 0,1.674 0.082,3.409 -0.013,5.133 -0.6,10.925 0.588,21.82 0.508,32.739 -0.054,7.459 0.397,14.922 0.359,22.382 -0.05,9.688 -0.254,19.38 -0.639,29.06 -0.088,2.223 -0.993,4.483 -1.861,6.587 -1.104,2.682 -2.552,5.223 -3.948,8.014 0.407,0.052 0.882,0.172 1.356,0.166 5.29,-0.074 10.592,0.601 15.874,-0.339 1.27,-0.226 2.611,-0.088 3.919,-0.067 9.153,0.145 18.306,0.305 27.46,0.456 0.691,0.012 1.387,0.019 2.076,-0.033 1.333,-0.1 2.096,-0.714 2.117,-2.183 0.089,-6.149 0.23,-12.297 0.346,-18.446 0.004,-0.223 0,-1.378 0,-1.378 0,0 -0.741,0.583 -0.963,0.711 -3.746,2.155 -7.804,2.98 -12.09,3.327 -4.756,0.384 -9.32,-0.208 -13.878,-1.44 -0.881,-0.238 -1.996,-0.89 -1.996,-0.89 0,0 0.002,-1.271 0.077,-2.062 0.39,-4.151 0.391,-8.314 0.155,-12.476 -0.039,-0.691 0.038,-1.354 0.083,-2.103 2.503,0 4.861,-0.06 7.213,0.015 2.763,0.09 5.524,0.283 8.283,0.46 1.07,0.068 2.134,0.213 3.2,0.33 1.235,0.136 2.411,0.507 2.411,0.507 l -1.925,-8.241 -0.645,-4.866 c 0,0 -10.789,-2.249 -15.903,-4.394 -2.945,-1.235 -3.018,-1.322 -3.019,-4.591 -0.002,-8.535 -0.027,-17.07 0.017,-25.605 0.009,-1.6 0.169,-3.192 0.333,-4.783 0.072,-0.691 0.167,-1.983 0.167,-1.983 0,0 -1.176,-0.84 -1.91,-1.239 C 12.487,10.223 8.187,7.126 4.173,3.629 2.813,2.443 1.449,1.26 0,0"
                  style="fill:#FFFFFF;fill-opacity:1;fill-rule:nonzero;stroke:none" id="path70" />
            </g>
            <g id="g72" transform="translate(178.4731,599.9044)">
               <path
                  d="m 0,0 c -0.537,0.028 -18.381,-0.409 -26.764,-0.551 -2.301,-0.039 -4.607,0.242 -6.911,0.242 -4.074,-0.001 -8.149,-0.166 -12.222,-0.14 -2.063,0.012 -4.124,0.292 -6.311,0.46 2.155,-2.758 4.194,-5.35 6.214,-7.957 1.431,-1.846 2.533,-3.843 2.778,-6.227 0.22,-2.138 0.571,-4.266 0.689,-6.409 0.246,-4.437 1.344,-8.825 0.756,-13.314 -0.098,-0.75 0.045,-1.534 0.096,-2.3 0.26,-3.91 0.585,-7.817 0.771,-11.73 0.132,-2.766 -0.039,-5.549 0.129,-8.312 0.579,-9.547 0.402,-19.075 -0.425,-28.598 -0.231,-2.653 -0.394,-5.311 -0.592,-8.029 h 18.338 c -0.283,1.707 -0.666,3.211 -0.761,4.732 -0.216,3.445 -0.395,6.891 -0.527,10.337 -0.029,1.046 -0.055,2.092 -0.077,3.139 -0.017,0.804 0.264,1.52 0.252,2.324 -0.009,0.615 -0.312,1.317 -0.318,1.932 -0.04,4.047 -0.007,8.097 0.115,12.149 0.015,0.343 0.022,0.686 0.039,1.029 0.001,0.025 -0.006,0.06 -0.007,0.089 0.001,0.035 0.002,0.071 0.003,0.105 0.017,0.509 0.072,1.165 0.305,1.487 1.43,1.97 1.449,3.85 3.6,4.238 2.725,0.491 14.954,1.362 14.954,1.362 0,0 -0.113,2.535 0.531,5.339 0.419,1.824 1.554,3.945 1.892,4.928 0.564,1.639 1.349,4.36 1.349,4.36 0,0 -9.159,-1.666 -11.235,-1.832 -2.108,-0.168 -7.857,-0.199 -10.64,-0.405 0.181,3.991 0.484,8.607 0.748,12.988 0.039,0.652 0.446,1.321 0.483,1.96 0.024,0.41 -0.322,0.794 -0.3,1.196 0.085,1.528 0.159,2.995 0.215,4.361 8.75,1.126 17.268,1.926 24.553,-4.328 0.259,-0.255 0.34,-0.59 0.34,-0.59 0,0 0.155,13.523 0.16,19.756 10e-4,0.944 0.145,2.327 0.145,2.327 C 2.365,0.118 0.828,-0.044 0,0"
                  style="fill:#FFFFFF;fill-opacity:1;fill-rule:nonzero;stroke:none" id="path74" />
            </g>
            <g id="g76" transform="translate(308.1006,524.5875)">
               <path
                  d="m 0,0 c 10.494,-0.249 20.42,0.679 29.997,5.221 v -22.453 c -1.125,-0.164 -2.023,-0.394 -2.925,-0.409 -5.69,-0.091 -11.382,-0.128 -17.073,-0.194 -8.54,-0.1 -17.08,-0.21 -25.62,-0.313 -0.682,-0.009 -1.363,-0.001 -2.397,-0.001 -0.044,1.763 -0.132,3.416 -0.12,5.068 0.065,8.697 0.198,17.393 0.224,26.09 0.025,8.075 -0.119,16.152 -0.053,24.228 0.026,3.222 0.466,6.439 0.617,9.663 0.065,1.371 -0.11,2.755 -0.208,4.13 -0.272,3.833 -0.629,7.662 -0.826,11.498 -0.229,4.451 -1.429,8.585 -3.751,12.445 h 21.511 c 0.6,-3.677 0.721,-7.562 0.552,-11.47 -0.126,-2.918 -0.287,-5.838 -0.264,-8.757 0.057,-7.075 0.273,-14.149 0.313,-21.224 C 0.035,23.131 -0.003,12.74 0,2.349 Z"
                  style="fill:#FFFFFF;fill-opacity:1;fill-rule:nonzero;stroke:none" id="path78" />
            </g>
            <g id="g80" transform="translate(232.5947,599.983)">
               <path
                  d="m 0,0 h 23.347 c -0.552,-2.375 -1.088,-4.582 -1.566,-6.799 -0.177,-0.819 -0.303,-1.668 -0.303,-2.502 10e-4,-7.004 0.062,-14.008 0.046,-21.011 -0.003,-1.685 -0.323,-3.368 -0.325,-5.052 -0.002,-2.455 0.178,-4.909 0.235,-7.365 0.027,-1.211 0.055,-2.423 0.082,-3.635 0.014,-0.64 0.028,-1.282 0.042,-1.922 0.013,-0.566 -0.615,-2.466 -0.615,-2.466 0,0 0.953,-13.315 1.12,-20.358 0.041,-1.68 0.201,-3.356 0.33,-5.427 6.399,0.227 12.694,0.224 18.944,0.753 4.048,0.342 7.553,2.448 10.673,5.065 0.275,0.23 0.576,0.429 1.095,0.813 0.062,-0.705 0.147,-1.129 0.127,-1.547 -0.235,-4.989 -0.523,-9.977 -0.713,-14.968 -0.059,-1.532 0.181,-3.073 0.203,-4.611 0.014,-0.966 -0.057,-2.416 -0.057,-2.416 0,0 -1.335,-0.094 -2.52,0.013 -8.363,0.761 -16.736,1.031 -25.132,0.738 -3.227,-0.113 -6.466,0.123 -9.696,0.067 -3.745,-0.064 -7.487,-0.275 -11.389,-0.429 0,1.042 0.009,2.262 -10e-4,3.481 -0.06,7.235 -0.172,14.469 -0.174,21.703 -0.002,8.389 0.068,16.779 0.15,25.168 C 4,-32.708 4.118,-22.709 4.277,-12.71 4.349,-8.241 3.292,-4.194 0.274,-0.778 0.142,-0.628 0.127,-0.374 0,0"
                  style="fill:#FFFFFF;fill-opacity:1;fill-rule:nonzero;stroke:none" id="path82" />
            </g>
            <g id="g84" transform="translate(276.1562,292.6984)">
               <path
                  d="m 0,0 c 3.353,-1.651 6.668,-3.218 9.924,-4.899 10.699,-5.53 21.885,-9.459 33.94,-10.72 0.363,-0.038 1.496,-0.173 1.496,-0.173 0,0 0.411,-1.354 0.525,-1.768 2.006,-7.261 3.88,-14.56 5.75,-21.859 1.703,-6.644 3.48,-13.274 4.932,-19.974 0.337,-1.551 -0.205,-3.496 -0.879,-5.023 -1.587,-3.602 -4.158,-6.806 -4.144,-11.019 0.002,-0.434 -0.213,-0.9 -0.426,-1.298 -6.021,-11.233 -9.884,-23.398 -15.037,-35.012 -4.88,-11.001 -8.491,-22.565 -12.661,-33.881 -0.099,-0.267 -0.204,-0.53 -0.522,-1.35 -1.174,3.538 -2.228,6.563 -3.182,9.62 -2.655,8.508 -5.124,17.078 -7.956,25.526 -1.471,4.392 -3.667,8.535 -5.321,12.873 -1.159,3.039 -1.76,6.293 -2.948,9.317 -3.146,8.01 -6.407,15.976 -9.77,23.897 -1.152,2.712 -0.199,5.224 0.103,7.817 0.574,4.936 1.192,9.865 1.81,14.795 0.561,4.471 1.185,8.935 1.71,13.409 0.41,3.503 0.749,7.016 1.056,10.531 0.553,6.33 1.058,12.664 1.6,19.191"
                  style="fill:#FFFFFF;fill-opacity:1;fill-rule:nonzero;stroke:none" id="path86" />
            </g>
            <g id="g88" transform="translate(271.478,288.1115)">
               <path
                  d="m 0,0 c -0.395,-1.616 -0.722,-2.927 -1.034,-4.241 -1.322,-5.576 -2.703,-11.138 -3.941,-16.733 -1.396,-6.304 -2.578,-12.657 -4.019,-18.951 -0.708,-3.094 -2.068,-6.051 -2.636,-9.161 -0.888,-4.852 -1.169,-9.715 0.056,-14.669 2.1,-8.492 3.813,-17.081 5.741,-25.87 -2.066,2.33 -3.846,4.724 -6.007,6.7 -6.01,5.498 -12.202,10.799 -18.268,16.237 -1.354,1.213 -2.369,2.813 -3.75,3.988 -6.333,5.387 -12.727,10.703 -19.134,16.002 -0.635,0.525 -1.795,1.621 -1.795,1.621 0,0 5.058,8.202 6.985,11.407 3.491,5.809 6.904,11.665 10.409,17.466 1.409,2.332 2.974,4.569 4.632,7.101 -0.879,0.124 -1.381,0.262 -1.879,0.252 -11.482,-0.221 -22.967,-0.355 -34.443,-0.748 -4.378,-0.149 -8.73,-0.942 -13.102,-1.362 -5.886,-0.564 -11.78,-1.046 -17.669,-1.58 -0.841,-0.077 -1.856,0.013 -2.481,-0.422 -5.189,-3.606 -12.304,-2.559 -17.083,-7.106 -0.079,-0.076 -1.008,-0.99 -1.008,-0.99 0,0 2.239,10.3 3.31,15.234 0.801,0 1.619,0.001 2.438,0 25.531,-0.027 51.065,0.192 76.591,-0.187 11.853,-0.175 23.362,0.955 34.598,4.712 1.057,0.354 2.092,0.777 3.489,1.3"
                  style="fill:#FFFFFF;fill-opacity:1;fill-rule:nonzero;stroke:none" id="path90" />
            </g>
            <g id="g92" transform="translate(344.5859,201.548)">
               <path
                  d="m 0,0 c 1.373,8.691 2.813,17.051 3.931,25.453 0.256,1.938 -0.185,4.209 -1.009,6.003 -2.529,5.507 -5.373,10.871 -8.151,16.263 -2.053,3.986 -4.299,7.877 -6.253,11.911 -0.917,1.892 -1.14,4.12 -2.038,6.025 -2.882,6.121 -5.933,12.163 -8.954,18.306 2.692,-0.559 5.584,-1.137 8.466,-1.762 6.893,-1.497 13.843,-1.807 20.9,-1.765 19.741,0.114 39.485,-0.137 59.228,-0.231 2.854,-0.014 5.714,0.16 8.559,0.003 0.44,-0.024 2.163,-0.031 2.163,-0.031 0,0 0.309,-0.995 0.433,-1.359 1.584,-4.63 2.908,-9.35 4.336,-14.111 0.189,-0.566 0.23,-0.916 0.23,-0.916 l -0.984,0.878 c -6.234,5.601 -13.538,8.604 -21.868,9.49 -7.661,0.816 -15.259,2.276 -22.929,2.919 -5.658,0.475 -11.386,0.094 -17.644,0.094 2.059,-2.669 4.053,-5.124 5.906,-7.682 4.496,-6.207 8.928,-12.461 13.382,-18.699 0.517,-0.723 1.565,-2.076 1.565,-2.076 0,0 -1.026,-1.683 -1.635,-2.514 -2.526,-3.44 -4.977,-6.935 -7.46,-10.407 C 30.085,35.667 29.915,35.58 29.872,35.446 28.539,31.31 25.624,28.493 22.491,25.604 18.68,22.09 15.468,17.92 12.045,13.99 8.06,9.417 4.126,4.797 0,0"
                  style="fill:#FFFFFF;fill-opacity:1;fill-rule:nonzero;stroke:none" id="path94" />
            </g>
            <g id="g96" transform="translate(309.9102,605.2687)">
               <path
                  d="m 0,0 c -5.487,2.047 -10.977,4.197 -16.545,6.116 -1.859,0.641 -3.913,0.769 -5.893,0.993 -0.646,0.073 -2.09,0.269 -2.09,0.269 0,0 -0.429,1.19 -0.7,2.006 -2.171,6.537 -4.574,13.001 -6.605,19.581 -1.429,4.634 -1.902,9.611 -3.708,14.068 -1.8,4.446 -0.91,7.936 1.127,11.914 7.875,15.383 15.431,30.928 20.954,47.357 1.122,3.34 2.024,6.754 3.166,10.596 0.77,-1.848 1.426,-3.277 1.967,-4.748 3.26,-8.864 6.501,-17.735 9.733,-26.609 1.828,-5.02 3.555,-10.078 5.461,-15.067 2.4,-6.281 5.076,-12.458 7.353,-18.78 1.119,-3.108 -1.039,-5.723 -2.238,-8.418 C 11.429,38.033 10.7,36.84 10.32,35.545 6.823,23.626 3.385,11.69 0,0"
                  style="fill:#FFFFFF;fill-opacity:1;fill-rule:nonzero;stroke:none" id="path98" />
            </g>
            <g id="g100" transform="translate(426.9297,628.7096)">
               <path
                  d="m 0,0 c 0,0 -2.619,-8.551 -3.807,-12.433 -0.236,-0.77 -0.517,-1.734 -0.517,-1.734 0,0 -1.994,-0.074 -2.796,-0.07 -12.076,0.049 -24.152,0.056 -36.229,0.092 -13.46,0.041 -26.919,0.087 -40.378,0.153 -9.416,0.047 -18.276,-2.021 -26.437,-6.822 -0.396,-0.233 -0.812,-0.437 -1.236,-0.612 -0.191,-0.078 -1.316,-0.589 -1.316,-0.589 0,0 3.217,6.791 4.634,9.841 3.467,7.455 6.842,14.955 10.41,22.361 1.763,3.657 3.833,7.169 5.842,10.703 1.215,2.136 0.971,4.221 0.165,6.38 -2.207,5.917 -4.394,11.842 -6.58,17.767 -0.103,0.276 -0.132,0.581 -0.289,1.306 2.822,-2.385 5.278,-4.599 7.881,-6.627 3.608,-2.81 7.364,-5.43 10.981,-8.229 1.915,-1.482 3.839,-2.854 5.537,-4.749 2.76,-3.079 6.463,-5.311 9.759,-7.912 1.317,-1.039 2.612,-2.106 4.073,-3.287 -5.155,-8.958 -10.224,-17.767 -15.365,-26.7 6.321,0 12.302,-0.23 18.259,0.051 10.355,0.488 20.726,0.997 31.035,2.051 8.867,0.907 17.685,2.497 25.101,8.133 C -1.036,-0.747 0,0 0,0"
                  style="fill:#FFFFFF;fill-opacity:1;fill-rule:nonzero;stroke:none" id="path102" />
            </g>
            <g id="g104" transform="translate(251.0937,617.6715)">
               <path
                  d="m 0,0 c -1.919,2.133 -3.314,3.948 -4.982,5.465 -1.752,1.594 -3.269,3.044 -4.159,5.494 -0.807,2.222 -3.094,3.919 -4.771,5.81 -1.059,1.195 -2.196,2.322 -3.455,3.645 4.666,5.007 9.106,10.187 13.991,14.907 5.881,5.683 12.153,10.962 18.221,16.454 0.835,0.755 1.471,1.73 2.607,2.446 -0.299,-0.847 -0.644,-1.68 -0.89,-2.543 -1.272,-4.459 -2.539,-8.92 -3.769,-13.391 -0.799,-2.907 0.645,-5.377 1.719,-7.876 4.902,-11.401 9.85,-22.781 14.927,-34.506 -1.501,0.194 -2.859,0.4 -4.224,0.539 -2.67,0.271 -5.342,0.714 -8.014,0.722 -26.618,0.079 -53.236,0.08 -79.854,0.112 -10.308,0.013 -20.617,0.114 -30.924,0.018 -1.002,-0.009 -2.474,0.06 -2.474,0.06 0,0 -0.402,1.484 -0.6,2.358 -0.793,3.495 -1.803,6.941 -2.84,10.849 3.441,-1.672 6.44,-3.339 9.602,-4.599 2.463,-0.981 5.09,-1.798 7.709,-2.076 4.194,-0.444 8.446,-0.297 12.665,-0.548 C -61.008,2.833 -52.513,2.09 -44,1.694 -32.331,1.152 -20.65,0.849 -8.975,0.427 -6.177,0.326 -3.381,0.163 0,0"
                  style="fill:#FFFFFF;fill-opacity:1;fill-rule:nonzero;stroke:none" id="path106" />
            </g>
         </g>
      </g>
   </g>
</svg>