<svg xmlns="http://www.w3.org/2000/svg" viewBox="0 0 1836.12 1882.36">
    <polygon fill="currentColor"
        points="975.7 964.31 975.7 1596.39 918.07 1654.03 860.44 1596.39 860.44 964.31 878.44 964.31 878.44 1588.94 918.07 1628.58 957.7 1588.94 957.7 964.31 975.7 964.31" />
    <polygon fill="currentColor"
        points="975.7 285.62 975.7 918.06 957.7 918.06 957.7 293.07 918.07 253.44 878.44 293.07 878.44 918.06 860.44 918.06 860.44 285.62 918.07 227.98 975.7 285.62" />
    <polygon fill="currentColor"
        points="786.47 964.31 786.47 1522.77 671.2 1407.5 671.2 964.31 689.2 964.31 689.2 1400.05 768.47 1479.32 768.47 964.31 786.47 964.31" />
    <polygon fill="currentColor"
        points="786.47 359.57 786.47 918.06 768.47 918.06 768.47 403.02 689.2 482.29 689.2 918.06 671.2 918.06 671.2 474.83 786.47 359.57" />
    <polygon fill="currentColor"
        points="1164.94 964.31 1164.94 1406.95 1049.67 1522.22 1049.67 964.31 1067.67 964.31 1067.67 1478.77 1146.94 1399.5 1146.94 964.31 1164.94 964.31" />
    <polygon fill="currentColor"
        points="1164.94 474.28 1164.94 918.06 1146.94 918.06 1146.94 481.74 1067.67 402.47 1067.67 918.06 1049.67 918.06 1049.67 359.01 1164.94 474.28" />
    <polygon fill="currentColor"
        points="1836.11 964.31 918.07 1882.36 .01 964.31 25.47 964.31 918.07 1856.91 1810.66 964.31 1836.11 964.31" />
    <polygon fill="currentColor"
        points="1696.87 964.31 918.07 1743.11 139.26 964.31 164.71 964.31 918.07 1717.66 1671.42 964.31 1696.87 964.31" />
    <polygon fill="currentColor"
        points="1836.12 918.06 1810.67 918.06 918.07 25.45 25.46 918.06 0 918.06 918.07 0 1836.12 918.06" />
    <polygon fill="currentColor"
        points="1696.88 918.06 1671.43 918.06 918.07 164.69 164.7 918.06 139.25 918.06 918.07 139.24 1696.88 918.06" />
</svg>